<svg version="1.1" id="Layer_1" xmlns="http://www.w3.org/2000/svg" xmlns:xlink="http://www.w3.org/1999/xlink" x="0px" y="0px"
	 width="100%" viewBox="0 0 512 512" enable-background="new 0 0 512 512" xml:space="preserve">
<path fill="#FFFFFF" opacity="1.000000" stroke="none" 
	d="
M289.000000,513.000000 
	C192.690048,513.000000 96.880096,513.000000 1.035069,513.000000 
	C1.035069,342.398346 1.035069,171.796707 1.035069,1.097524 
	C171.559967,1.097524 342.120026,1.097524 512.840027,1.097524 
	C512.840027,171.666550 512.840027,342.333252 512.840027,513.000000 
	C438.463348,513.000000 363.981659,513.000000 289.000000,513.000000 
M377.500000,49.000000 
	C360.179016,66.317413 342.906281,83.683540 325.508392,100.923347 
	C320.101501,106.281097 319.957336,112.664688 321.780853,119.167862 
	C325.084961,130.950912 342.082916,131.700424 348.695129,124.888939 
	C359.603882,113.651405 370.795288,102.688042 381.887360,91.628990 
	C382.719147,90.799721 383.708923,90.128944 385.455261,88.710159 
	C384.936218,99.708694 384.458130,109.627449 384.003235,119.547279 
	C383.654999,127.140648 383.717010,134.775635 382.919189,142.320511 
	C381.563110,155.144760 379.921356,167.950806 377.955719,180.696030 
	C374.170746,205.237915 366.309692,228.590088 355.482544,250.833344 
	C345.494202,271.353241 331.913513,289.411957 314.787079,304.625977 
	C311.684906,307.381714 308.019165,309.503021 304.018982,312.338776 
	C304.018982,309.118134 304.023315,306.828827 304.018219,304.539551 
	C303.996338,294.688324 305.211517,284.640228 303.685364,275.027527 
	C300.672119,256.048096 291.929779,239.867416 276.840698,227.199844 
	C258.126343,211.488815 236.306976,206.420715 212.959915,209.360748 
	C193.976715,211.751266 177.841873,220.950058 164.751602,235.559982 
	C147.865204,254.406723 142.399689,276.709015 145.341446,300.815948 
	C147.652328,319.753113 156.298172,336.244537 171.355423,348.978790 
	C184.776520,360.329346 200.201920,366.308868 217.474594,367.970245 
	C224.442810,368.640503 231.443008,368.978210 238.745789,369.489441 
	C237.975769,370.727356 237.521042,372.044342 236.609573,372.834564 
	C225.321335,382.621307 214.372467,392.861664 202.526917,401.927795 
	C187.475876,413.447296 170.320282,421.397675 152.846695,428.668610 
	C132.021820,437.334076 110.292442,442.621399 88.108070,445.828278 
	C74.958511,447.729156 61.578335,448.077911 48.291714,448.974335 
	C36.646385,449.760010 29.961477,459.068542 33.136604,470.333954 
	C34.596298,475.512970 40.532112,480.771545 45.490036,480.975220 
	C63.362736,481.709320 81.196777,480.681793 98.804108,477.824860 
	C118.653015,474.604126 138.224487,469.949341 157.163635,462.956207 
	C175.478210,456.193726 193.138824,448.071747 209.730606,437.748260 
	C228.857513,425.847504 246.609253,412.164917 261.307159,395.006775 
	C268.926636,386.111908 275.888489,376.580200 282.389954,366.831055 
	C285.831543,361.670319 288.899292,357.095337 295.457397,355.694763 
	C298.718109,354.998383 301.813293,353.223083 304.800659,351.599701 
	C324.408295,340.944458 341.710480,327.549835 356.279785,310.412689 
	C374.591003,288.874023 387.337341,264.359161 396.974182,238.082443 
	C404.878174,216.530609 410.356781,194.324326 413.004272,171.482178 
	C414.437012,159.120514 416.286255,146.763641 416.842285,134.355072 
	C417.509674,119.461136 417.000000,104.514450 417.000000,89.590614 
	C417.503143,89.224129 418.006287,88.857651 418.509430,88.491165 
	C419.375610,89.862144 420.027222,91.445419 421.141235,92.571136 
	C431.806976,103.349174 442.668335,113.936043 453.218506,124.824883 
	C457.897125,129.653687 465.684509,129.921158 471.581726,128.098755 
	C482.953857,124.584465 483.476624,107.634911 476.624725,100.938622 
	C455.651611,80.441879 435.058868,59.555954 414.319153,38.820396 
	C405.690186,30.193169 396.266449,30.240904 387.546814,38.958748 
	C384.365173,42.139786 381.182312,45.319630 377.500000,49.000000 
z"/>
<path fill="#1267A0" opacity="1.000000" stroke="none" 
	d="
M377.750000,48.750008 
	C381.182312,45.319630 384.365173,42.139786 387.546814,38.958748 
	C396.266449,30.240904 405.690186,30.193169 414.319153,38.820396 
	C435.058868,59.555954 455.651611,80.441879 476.624725,100.938622 
	C483.476624,107.634911 482.953857,124.584465 471.581726,128.098755 
	C465.684509,129.921158 457.897125,129.653687 453.218506,124.824883 
	C442.668335,113.936043 431.806976,103.349174 421.141235,92.571136 
	C420.027222,91.445419 419.375610,89.862144 418.509430,88.491165 
	C418.006287,88.857651 417.503143,89.224129 417.000000,89.590614 
	C417.000000,104.514450 417.509674,119.461136 416.842285,134.355072 
	C416.286255,146.763641 414.437012,159.120514 413.004272,171.482178 
	C410.356781,194.324326 404.878174,216.530609 396.974182,238.082443 
	C387.337341,264.359161 374.591003,288.874023 356.279785,310.412689 
	C341.710480,327.549835 324.408295,340.944458 304.800659,351.599701 
	C301.813293,353.223083 298.718109,354.998383 295.457397,355.694763 
	C288.899292,357.095337 285.831543,361.670319 282.389954,366.831055 
	C275.888489,376.580200 268.926636,386.111908 261.307159,395.006775 
	C246.609253,412.164917 228.857513,425.847504 209.730606,437.748260 
	C193.138824,448.071747 175.478210,456.193726 157.163635,462.956207 
	C138.224487,469.949341 118.653015,474.604126 98.804108,477.824860 
	C81.196777,480.681793 63.362736,481.709320 45.490036,480.975220 
	C40.532112,480.771545 34.596298,475.512970 33.136604,470.333954 
	C29.961477,459.068542 36.646385,449.760010 48.291714,448.974335 
	C61.578335,448.077911 74.958511,447.729156 88.108070,445.828278 
	C110.292442,442.621399 132.021820,437.334076 152.846695,428.668610 
	C170.320282,421.397675 187.475876,413.447296 202.526917,401.927795 
	C214.372467,392.861664 225.321335,382.621307 236.609573,372.834564 
	C237.521042,372.044342 237.975769,370.727356 238.745789,369.489441 
	C231.443008,368.978210 224.442810,368.640503 217.474594,367.970245 
	C200.201920,366.308868 184.776520,360.329346 171.355423,348.978790 
	C156.298172,336.244537 147.652328,319.753113 145.341446,300.815948 
	C142.399689,276.709015 147.865204,254.406723 164.751602,235.559982 
	C177.841873,220.950058 193.976715,211.751266 212.959915,209.360748 
	C236.306976,206.420715 258.126343,211.488815 276.840698,227.199844 
	C291.929779,239.867416 300.672119,256.048096 303.685364,275.027527 
	C305.211517,284.640228 303.996338,294.688324 304.018219,304.539551 
	C304.023315,306.828827 304.018982,309.118134 304.018982,312.338776 
	C308.019165,309.503021 311.684906,307.381714 314.787079,304.625977 
	C331.913513,289.411957 345.494202,271.353241 355.482544,250.833344 
	C366.309692,228.590088 374.170746,205.237915 377.955719,180.696030 
	C379.921356,167.950806 381.563110,155.144760 382.919189,142.320511 
	C383.717010,134.775635 383.654999,127.140648 384.003235,119.547279 
	C384.458130,109.627449 384.936218,99.708694 385.455261,88.710159 
	C383.708923,90.128944 382.719147,90.799721 381.887360,91.628990 
	C370.795288,102.688042 359.603882,113.651405 348.695129,124.888939 
	C342.082916,131.700424 325.084961,130.950912 321.780853,119.167862 
	C319.957336,112.664688 320.101501,106.281097 325.508392,100.923347 
	C342.906281,83.683540 360.179016,66.317413 377.750000,48.750008 
M185.975739,316.466095 
	C191.005081,324.202942 198.379044,328.879059 206.797409,331.990662 
	C222.743057,337.884491 238.971252,337.014709 255.178329,333.308624 
	C258.820496,332.475800 263.285522,333.152679 265.057373,327.903229 
	C269.644623,314.312744 273.242615,300.601868 271.967346,286.105865 
	C270.809326,272.942688 265.890808,261.196747 255.821609,252.574905 
	C246.173355,244.313477 234.595703,241.191727 221.609482,241.840302 
	C203.500031,242.744720 186.459320,256.627838 180.999435,271.882965 
	C175.509796,287.221222 176.590912,302.004456 185.975739,316.466095 
z"/>
<path fill="#FFFFFF" opacity="1.000000" stroke="none" 
	d="
M185.715851,316.205688 
	C176.590912,302.004456 175.509796,287.221222 180.999435,271.882965 
	C186.459320,256.627838 203.500031,242.744720 221.609482,241.840302 
	C234.595703,241.191727 246.173355,244.313477 255.821609,252.574905 
	C265.890808,261.196747 270.809326,272.942688 271.967346,286.105865 
	C273.242615,300.601868 269.644623,314.312744 265.057373,327.903229 
	C263.285522,333.152679 258.820496,332.475800 255.178329,333.308624 
	C238.971252,337.014709 222.743057,337.884491 206.797409,331.990662 
	C198.379044,328.879059 191.005081,324.202942 185.715851,316.205688 
z"/>
</svg>